PathFileType	4	(X/Y/Z)	Kaydara	
DataRate	CameraRate	NumFrames	NumMarkers	Units	OrigDataRate	OrigDataStartFrame	OrigNumFrames	
240.00	240.00	4	72	mm	240.00	1	359	
Frame#	Time	Hips			RightUpLeg			RightLeg			RightFoot			RightFoot_End			LeftUpLeg			LeftLeg			LeftFoot			LeftFoot_End			Spine			Spine1			Spine2			Spine3			Neck			Head			Head_End			RightShoulder			RightArm			RightForeArm			RightHand			RightHandThumb1			RightHandThumb2			RightHandThumb3			RightHandThumb3_End			RightInHandIndex			RightHandIndex1			RightHandIndex2			RightHandIndex3			RightHandIndex3_End			RightInHandMiddle			RightHandMiddle1			RightHandMiddle2			RightHandMiddle3			RightHandMiddle3_End			RightInHandRing			RightHandRing1			RightHandRing2			RightHandRing3			RightHandRing3_End			RightInHandPinky			RightHandPinky1			RightHandPinky2			RightHandPinky3			RightHandPinky3_End			LeftShoulder			LeftArm			LeftForeArm			LeftHand			LeftHandThumb1			LeftHandThumb2			LeftHandThumb3			LeftHandThumb3_End			LeftInHandIndex			LeftHandIndex1			LeftHandIndex2			LeftHandIndex3			LeftHandIndex3_End			LeftInHandMiddle			LeftHandMiddle1			LeftHandMiddle2			LeftHandMiddle3			LeftHandMiddle3_End			LeftInHandRing			LeftHandRing1			LeftHandRing2			LeftHandRing3			LeftHandRing3_End			LeftInHandPinky			LeftHandPinky1			LeftHandPinky2			LeftHandPinky3			LeftHandPinky3_End			
		X1	Y1	Z1	X2	Y2	Z2	X3	Y3	Z3	X4	Y4	Z4	X5	Y5	Z5	X6	Y6	Z6	X7	Y7	Z7	X8	Y8	Z8	X9	Y9	Z9	X10	Y10	Z10	X11	Y11	Z11	X12	Y12	Z12	X13	Y13	Z13	X14	Y14	Z14	X15	Y15	Z15	X16	Y16	Z16	X17	Y17	Z17	X18	Y18	Z18	X19	Y19	Z19	X20	Y20	Z20	X21	Y21	Z21	X22	Y22	Z22	X23	Y23	Z23	X24	Y24	Z24	X25	Y25	Z25	X26	Y26	Z26	X27	Y27	Z27	X28	Y28	Z28	X29	Y29	Z29	X30	Y30	Z30	X31	Y31	Z31	X32	Y32	Z32	X33	Y33	Z33	X34	Y34	Z34	X35	Y35	Z35	X36	Y36	Z36	X37	Y37	Z37	X38	Y38	Z38	X39	Y39	Z39	X40	Y40	Z40	X41	Y41	Z41	X42	Y42	Z42	X43	Y43	Z43	X44	Y44	Z44	X45	Y45	Z45	X46	Y46	Z46	X47	Y47	Z47	X48	Y48	Z48	X49	Y49	Z49	X50	Y50	Z50	X51	Y51	Z51	X52	Y52	Z52	X53	Y53	Z53	X54	Y54	Z54	X55	Y55	Z55	X56	Y56	Z56	X57	Y57	Z57	X58	Y58	Z58	X59	Y59	Z59	X60	Y60	Z60	X61	Y61	Z61	X62	Y62	Z62	X63	Y63	Z63	X64	Y64	Z64	X65	Y65	Z65	X66	Y66	Z66	X67	Y67	Z67	X68	Y68	Z68	X69	Y69	Z69	X70	Y70	Z70	X71	Y71	Z71	X72	Y72	Z72	

1	0.0	198.9409999999998	914.58397	126.699	250.62301000000025	891.57046	52.38616999999999	155.80115999999998	495.42271999999997	-45.42119	143.60367000000042	104.01558	-122.16958000000001	-8.254170000000158	26.75183	-35.52016999999999	161.33111999999983	911.6676399999999	213.18313	70.55151999999998	509.49336	286.83937000000003	-5.143960000000334	84.47593	371.53312000000005	-126.56698999999935	1.68091	249.30365999999998	133.50513000000046	1031.24824	75.73788	70.04761999999937	1084.00801	24.407470000000004	0.5294699999994918	1131.7793	-31.53028	-70.66143000000011	1166.5370400000002	-87.81207999999998	-147.67090999999982	1204.2422700000002	-146.35932999999997	-219.03560000000016	1239.4987400000002	-197.11831000000004	-352.83102000000054	1325.7296799999997	-207.28004	-107.76206000000002	1180.7671300000002	-152.77633	-90.01302000000032	1108.7617799999998	-257.73492	-129.61599999999999	862.5257099999999	-169.71477000000002	-167.48762999999963	616.95431	-95.81298000000004	-191.48223000000053	586.48324	-105.44076999999999	-217.00143000000025	566.03495	-88.50279000000006	-231.83160000000044	551.72044	-73.34821999999997	-241.67857000000004	539.7234600000002	-57.84101999999996	-182.36513999999988	581.8101999999998	-95.97592000000003	-197.54670999999962	534.80111	-76.43434000000002	-212.24812999999995	510.6921799999999	-53.793409999999994	-224.87656999999945	504.13512999999995	-39.006959999999935	-237.6822599999996	504.39515000000006	-26.288890000000038	-174.0331900000001	583.6532299999999	-87.09050000000002	-184.33291000000008	538.7964099999999	-63.22667999999999	-199.2316299999993	512.89519	-37.40061000000003	-213.91866000000027	505.1794000000001	-19.023689999999988	-227.66366000000016	505.55872999999997	-4.846469999999954	-167.70105000000058	586.0577099999999	-81.37759	-171.26458999999977	547.6598899999999	-55.224609999999984	-183.06604999999945	525.5714500000001	-31.606310000000008	-196.6039299999993	518.3876900000001	-13.291789999999992	-209.22966000000088	518.8669799999999	0.3172500000000582	-160.42163999999957	590.95672	-74.83963	-159.01195000000007	558.4173099999999	-47.03669000000002	-166.59933999999976	541.6579	-26.50866999999994	-175.57283000000007	536.86704	-12.36859000000004	-186.23858999999993	537.5500099999999	0.13652000000001863	-136.21630000000005	1203.19334	-99.98316	-157.91944999999942	1197.13132	25.3572	-97.62199999999939	946.7637199999999	-33.07117000000002	-58.91892999999982	698.20782	-94.90598	-69.14213000000018	674.05489	-125.05634000000003	-51.625089999999545	654.0283699999999	-150.51904999999996	-36.79537999999957	638.8861200000001	-164.84706	-22.181880000000092	625.2397099999998	-173.87947999999997	-62.734770000000026	666.2584899999999	-115.42804000000001	-49.775150000000394	618.59901	-134.99409000000003	-29.61645000000044	592.3437799999999	-149.63216	-14.117640000000392	584.48669	-160.54842000000002	0.711460000000443	583.69382	-170.80861	-55.5008600000001	664.9934699999999	-105.53667999999999	-38.95078999999987	617.8216200000002	-119.27028000000001	-16.027259999999842	589.16824	-133.87599	3.116030000000137	579.68721	-146.38992000000002	19.55787000000055	578.8188300000002	-157.29745000000003	-50.814150000000154	665.22845	-98.0204	-32.18666999999914	622.9011	-103.71968999999996	-11.284630000000107	597.9982499999999	-115.03120999999999	7.670120000000679	588.89105	-126.34839	23.361580000000686	588.09257	-136.24714999999998	-45.05262000000039	667.56913	-89.01702	-24.724659999999858	629.88084	-88.60370999999998	-6.629509999999755	610.23638	-95.42329999999998	7.852869999999712	603.7371499999999	-102.59537999999998	22.130890000000363	603.11246	-110.74095000000005
2	0.004	198.9409999999998	914.58397	126.699	250.5985099999998	891.5556700000001	52.37371999999999	155.69505000000026	495.4146699999999	-45.3818	143.49917000000005	104.00851	-122.13542	-8.354019999999764	26.752970000000005	-35.47055999999999	161.34893999999986	911.67675	213.19119000000003	70.4716499999995	509.51656	286.80388	-5.237650000000031	84.49205	371.44972000000007	-126.6594500000001	1.7040800000000003	249.21427	133.5359900000003	1031.27438	75.75810999999999	70.10867999999937	1084.0973200000003	24.45536	0.6206899999997404	1131.9371099999998	-31.46131	-70.54597999999987	1166.7656700000002	-87.72998	-147.53017	1204.5447299999996	-146.26289999999997	-218.87280999999984	1239.8654500000002	-197.00822	-352.7026999999998	1326.0479800000003	-207.12658999999996	-107.6199800000004	1181.0751699999998	-152.69199	-89.74017000000003	1109.52002	-257.93588000000005	-128.97101999999995	862.94925	-170.68945000000002	-168.0006000000003	617.3374900000001	-97.52800000000002	-191.81011000000035	586.84761	-107.54782	-217.54214000000047	566.33742	-91.01144	-232.56925000000047	551.97874	-76.09451999999999	-242.62208999999984	539.94406	-60.74948000000006	-182.8240399999995	582.17281	-97.95934	-198.2192500000001	535.11237	-78.71067	-213.21182000000044	510.94795	-56.321210000000065	-226.04317999999967	504.35038999999995	-41.728759999999966	-239.03161999999975	504.57281	-29.19667000000004	-174.62396999999964	584.01384	-88.95167000000004	-185.20334999999977	539.10587	-65.30740000000003	-200.4366399999999	513.1439700000001	-39.73871000000008	-215.37660999999935	505.37924	-21.587679999999978	-229.32552000000032	505.71742	-7.6099799999999505	-168.3784599999999	586.4183999999999	-83.14420999999999	-172.26465999999982	547.97536	-57.103870000000086	-184.37456999999995	525.8339799999999	-33.69217000000003	-198.16535000000022	518.6029900000001	-15.586119999999937	-210.98703999999998	519.04357	-2.1602100000000064	-161.20125999999982	591.3175499999999	-76.49431000000004	-160.1469500000003	558.73734	-48.72341999999992	-168.00619000000006	541.93567	-28.332690000000014	-177.17617999999948	537.1104200000001	-14.331030000000055	-188.0224500000004	537.7591400000001	-1.9803200000001198	-136.0940900000005	1203.4399	-99.88345000000001	-157.94664000000012	1197.20819	25.422629999999998	-97.54990999999973	947.01984	-33.66727	-58.88155999999981	698.5736000000002	-95.96278999999998	-68.69582999999966	674.5837600000001	-126.37806999999998	-50.83593000000019	654.7136800000001	-151.72489000000002	-35.81065000000035	639.66308	-165.94530999999995	-21.071060000000216	626.07829	-174.86503999999996	-62.4070899999997	666.7377800000002	-116.71190999999999	-49.1585299999997	619.19867	-136.37703	-28.79193000000032	593.04083	-150.90125999999998	-13.14738000000034	585.2565199999999	-161.66062	1.8135000000002037	584.53214	-171.73286000000002	-55.300420000000486	665.4221800000001	-106.73528999999996	-38.53733999999986	618.3403800000001	-120.51945	-15.404669999999896	589.78623	-134.98914000000002	3.9059500000003027	580.3896200000001	-147.30811	20.48783999999978	579.5945200000001	-158.00722999999994	-50.71126000000004	665.61813	-99.15794	-31.978430000000117	623.3369300000002	-104.85451	-10.91255000000001	598.51322	-116.03530000000006	8.193819999999505	589.4835600000001	-127.15797000000003	24.012320000000727	588.7521400000002	-136.85772000000003	-45.06822999999986	667.9121200000001	-90.06790000000001	-24.71758999999929	630.23665	-89.60442	-6.520470000000387	610.64393	-96.30036000000001	8.058359999999993	604.1956	-103.32139000000001	22.440779999999904	603.6270800000001	-111.28539
3	0.008	198.9409999999998	914.58397	126.699	250.57911999999942	891.5346699999999	52.36675	155.57304000000022	495.4048599999999	-45.33440000000001	143.36501000000044	103.99394	-122.06179	-8.49503999999979	26.75525	-35.39392	161.35821000000033	911.6911	213.19568999999998	70.39227000000028	509.54164999999995	286.75753000000003	-5.30800999999974	84.50238	371.33735	-126.71488999999929	1.7196999999999996	249.08348999999998	133.58201999999983	1031.30511	75.76943999999999	70.19189000000006	1084.1948300000001	24.489540000000005	0.7414100000005419	1132.10703	-31.411739999999998	-70.39469000000008	1167.0108600000003	-87.67243000000003	-147.34698000000026	1204.8683900000003	-146.1966	-218.66179999999986	1240.2574	-196.93342000000004	-352.5231900000008	1326.4039999999998	-206.94048	-107.4349000000002	1181.40461	-152.6351	-89.45571999999993	1110.19479	-258.09605999999997	-128.30969000000005	863.28925	-171.63121	-168.66893999999957	617.6229100000002	-99.38008000000002	-192.28481999999985	587.1209899999999	-109.81296000000003	-218.23290999999972	566.5444400000001	-93.70210999999995	-233.4614700000002	552.13678	-79.03886999999997	-243.7258699999993	540.0588800000002	-63.86883	-183.4365199999993	582.43946	-100.10043000000002	-199.0533800000003	535.3212100000001	-81.17445999999995	-214.3456100000003	511.09331999999995	-59.057930000000056	-227.38436000000002	504.45029999999997	-44.671389999999974	-240.55868999999984	504.6310500000001	-32.33417999999995	-175.37431000000015	584.2738500000002	-90.96782000000002	-186.24441000000024	539.30589	-67.57071999999994	-201.82235000000037	513.2740200000001	-42.2823699999999	-217.02098999999998	505.45410999999996	-24.371380000000045	-231.17741000000024	505.74651	-10.602840000000015	-169.21943999999985	586.6754000000001	-85.06315000000001	-173.44164999999975	548.17657	-59.15788999999995	-185.86954999999944	525.9735699999999	-35.972290000000044	-199.91920000000027	518.68901	-18.088089999999966	-212.9404400000003	519.08639	-4.854249999999979	-162.1489499999998	591.5711100000001	-78.29743000000002	-161.46500000000015	558.9383100000001	-50.57674999999995	-169.60487000000012	542.08653	-30.338029999999947	-178.97625999999946	537.2218299999997	-16.48415	-190.0065199999999	537.8320800000001	-4.295490000000086	-135.9344799999999	1203.70428	-99.81278999999999	-157.9034099999999	1197.3516500000003	25.46687	-97.3788599999998	947.36569	-34.34440000000001	-58.7433800000008	699.04492	-97.15841	-68.1541299999999	675.22517	-127.83378999999996	-49.96012999999948	655.5144000000001	-153.06712999999996	-34.74488999999994	640.55661	-167.18313	-19.88347999999951	627.0336899999999	-175.99407000000002	-61.98232000000007	667.32753	-118.13440000000003	-48.450479999999516	619.91216	-137.90506999999997	-27.88221000000067	593.8526899999999	-152.32153	-12.096969999999601	586.14143	-162.92690999999996	2.9906700000001365	585.4855300000002	-172.81302	-55.00144999999975	665.95892	-108.07641000000001	-38.0301300000001	618.9691199999999	-121.91958	-14.694910000000164	590.51494	-136.26036	4.777039999999943	581.2029199999998	-148.38814000000002	21.49355999999989	580.4810299999999	-158.88096999999993	-50.50867999999991	666.1140400000002	-100.44057999999995	-31.67367000000013	623.87921	-106.14423	-10.449469999999565	599.1349399999999	-117.20100000000002	8.802840000000288	590.1827900000001	-128.13305000000003	24.743330000000242	589.5182700000001	-137.63588999999996	-44.982819999999265	668.3591	-91.26673999999997	-24.611510000000635	630.69532	-90.76379000000003	-6.316490000000158	611.1540099999999	-97.34217999999998	8.354819999999563	604.75632	-104.21535	22.83726999999999	604.2436699999998	-111.99984
4	0.013	198.9409999999998	914.58397	126.699	250.55306999999993	891.5210999999999	52.352880000000006	155.46673999999985	495.39704	-45.293490000000006	143.28926000000047	103.98239	-122.00673	-8.562649999999849	26.743069999999996	-35.32517	161.3782600000004	911.69912	213.20467	70.35903000000053	509.5589400000001	286.75127	-5.302150000000438	84.50481000000002	371.29134000000005	-126.69611999999961	1.7145900000000003	249.02976	133.60991999999987	1031.33057	75.79201000000002	70.25122999999985	1084.28356	24.538560000000004	0.8329999999996289	1132.2642900000005	-31.343999999999998	-70.27516999999989	1167.2385	-87.59628999999997	-147.19851000000017	1205.16906	-146.11122	-218.48840000000018	1240.6210899999999	-196.83908999999997	-352.39016999999967	1326.7094500000003	-206.807	-107.28147999999965	1181.71641	-152.55958	-88.96452000000045	1111.2938399999998	-258.48999	-127.36499999999978	864.0488600000001	-172.79596	-168.35761999999977	618.3550899999999	-100.99606000000006	-191.76549999999952	587.84224	-111.85692	-217.92648000000008	567.19187	-96.19093000000004	-233.35621999999967	552.7292300000001	-81.79458	-243.83362000000034	540.6024400000001	-66.81029999999998	-183.05994999999984	583.1518700000001	-102.02044999999998	-198.89443000000028	535.9686399999999	-83.44034000000005	-214.48729000000003	511.66902000000005	-61.61432999999988	-227.73482999999942	504.9748000000001	-47.443880000000036	-241.09673999999995	505.10871999999995	-35.30947000000003	-175.14124000000083	584.97754	-92.76141999999993	-186.30116999999973	539.9414999999999	-69.63327000000004	-202.2255699999996	513.8303800000002	-44.64418999999998	-217.68494999999984	505.9482300000001	-26.98538999999994	-232.05090999999993	506.18917	-13.43461000000002	-169.08107999999993	587.3748199999999	-86.75788999999997	-173.64195000000018	548.8119600000001	-61.00572999999997	-186.39019999999982	526.539	-38.06242999999995	-200.70110999999997	519.1939299999999	-20.41165000000001	-213.92397999999957	519.5427	-7.377899999999954	-162.1223	592.26567	-79.87385999999998	-161.81412	559.5718999999999	-52.21837999999997	-170.23772999999983	542.6629800000001	-32.144079999999974	-179.81283000000076	537.75362	-18.446140000000014	-191.0292899999995	538.3204899999998	-6.4264799999999696	-135.8108000000002	1203.9439	-99.7229	-158.10900000000038	1197.1888600000004	25.477509999999995	-97.4022100000002	947.42405	-35.06844000000001	-58.780579999999645	699.2424899999999	-98.43871000000001	-67.78823999999986	675.5916900000001	-129.36481000000003	-49.26462999999967	656.0371200000001	-154.47959000000003	-33.86250000000018	641.17014	-168.48841999999996	-18.881779999999708	627.70753	-177.18898	-61.732779999999366	667.6430099999999	-119.63381999999996	-47.91910000000007	620.3500699999998	-139.50259	-27.152430000000095	594.3868499999999	-153.80784999999997	-11.22972000000027	586.7466400000001	-164.25802	3.9812400000000707	586.1571099999999	-173.95758999999998	-54.877629999999954	666.22174	-109.49697000000003	-37.69941000000017	619.3228800000003	-123.39321999999999	-14.165189999999711	590.96639	-137.60171000000003	5.464210000000094	581.73657	-149.53696999999994	22.311569999999847	581.0855999999999	-159.82314000000002	-50.481120000000374	666.3363200000001	-101.80461000000003	-31.54496999999992	624.1472100000001	-107.51166	-10.165530000000217	599.4804600000001	-118.44183999999996	9.228979999999865	590.60354	-129.18219999999997	25.287919999999758	590.0037800000001	-138.48788000000002	-45.07243000000017	668.5327500000001	-92.54951999999997	-24.681319999999687	630.8802500000002	-92.00527999999997	-6.290840000000571	611.3889099999999	-98.46465999999998	8.470239999999649	605.0402399999999	-105.18946	23.04957000000013	604.58158	-112.7944
